<mxfile host="Electron" agent="Mozilla/5.0 (Windows NT 10.0; Win64; x64) AppleWebKit/537.36 (KHTML, like Gecko) draw.io/28.1.2 Chrome/138.0.7204.243 Electron/37.4.0 Safari/537.36" version="28.1.2">
  <diagram name="Страница — 1" id="Ub_RG5BVfybFAIFzAZJt">
    <mxGraphModel dx="901" dy="630" grid="1" gridSize="10" guides="1" tooltips="1" connect="1" arrows="1" fold="1" page="1" pageScale="1" pageWidth="827" pageHeight="1169" math="0" shadow="0">
      <root>
        <mxCell id="0" />
        <mxCell id="1" parent="0" />
        <mxCell id="sQo7lses8vQsKpoa6HPt-1" value="Кластер с 1 master-узлом" style="rounded=1;whiteSpace=wrap;html=1;strokeColor=#7C8A9A;strokeWidth=1;fontColor=#212121;fillColor=none;dashed=1;fontFamily=VK Sans Display;verticalAlign=top;spacing=10;fontStyle=1;arcSize=12;absoluteArcSize=1;container=0;" vertex="1" parent="1">
          <mxGeometry x="530" y="340" width="620" height="300" as="geometry" />
        </mxCell>
        <mxCell id="sQo7lses8vQsKpoa6HPt-2" value="&lt;font color=&quot;#212121&quot;&gt;Зона доступности 1&lt;/font&gt;" style="rounded=1;whiteSpace=wrap;html=1;fontFamily=VK Sans Display;strokeColor=none;arcsize=12;fillColor=#F6F7F9;spacing=10;verticalAlign=top;spacingTop=0;spacingLeft=0;spacingRight=0;fontStyle=1;arcSize=12;absoluteArcSize=1;container=0;" vertex="1" parent="1">
          <mxGeometry x="540" y="385" width="180" height="235" as="geometry" />
        </mxCell>
        <mxCell id="sQo7lses8vQsKpoa6HPt-3" value="&lt;font color=&quot;#212121&quot;&gt;Node 1&lt;/font&gt;" style="rounded=1;whiteSpace=wrap;html=1;fontFamily=VK Sans Display;strokeColor=#7C8A9A;arcsize=12;fillColor=#FFFFFF;spacing=0;spacingTop=12;spacingBottom=12;arcSize=12;absoluteArcSize=1;strokeWidth=1;container=0;" vertex="1" parent="1">
          <mxGeometry x="551.25" y="443.6" width="137.5" height="40" as="geometry" />
        </mxCell>
        <mxCell id="sQo7lses8vQsKpoa6HPt-4" value="&lt;font color=&quot;#212121&quot;&gt;Node 1&lt;/font&gt;" style="rounded=1;whiteSpace=wrap;html=1;fontFamily=VK Sans Display;strokeColor=#7C8A9A;arcsize=12;fillColor=#FFFFFF;spacing=0;spacingTop=12;spacingBottom=12;arcSize=12;absoluteArcSize=1;strokeWidth=1;container=0;" vertex="1" parent="1">
          <mxGeometry x="561.25" y="453.6" width="137.5" height="40" as="geometry" />
        </mxCell>
        <mxCell id="sQo7lses8vQsKpoa6HPt-5" value="&lt;font color=&quot;#212121&quot;&gt;Группа worker-узлов&amp;nbsp;A&lt;/font&gt;" style="rounded=1;whiteSpace=wrap;html=1;fontFamily=VK Sans Display;strokeColor=#7C8A9A;arcsize=12;fillColor=#FFFFFF;spacing=0;spacingTop=12;spacingBottom=12;arcSize=12;absoluteArcSize=1;strokeWidth=1;container=0;" vertex="1" parent="1">
          <mxGeometry x="571.25" y="463.6" width="137.5" height="40" as="geometry" />
        </mxCell>
        <mxCell id="sQo7lses8vQsKpoa6HPt-6" value="&lt;font color=&quot;#212121&quot;&gt;Node 1&lt;/font&gt;" style="rounded=1;whiteSpace=wrap;html=1;fontFamily=VK Sans Display;strokeColor=#7C8A9A;arcsize=12;fillColor=#FFFFFF;spacing=0;spacingTop=12;spacingBottom=12;arcSize=12;absoluteArcSize=1;strokeWidth=1;container=0;" vertex="1" parent="1">
          <mxGeometry x="551.25" y="525.25" width="137.5" height="40" as="geometry" />
        </mxCell>
        <mxCell id="sQo7lses8vQsKpoa6HPt-7" value="&lt;font color=&quot;#212121&quot;&gt;Node 1&lt;/font&gt;" style="rounded=1;whiteSpace=wrap;html=1;fontFamily=VK Sans Display;strokeColor=#7C8A9A;arcsize=12;fillColor=#FFFFFF;spacing=0;spacingTop=12;spacingBottom=12;arcSize=12;absoluteArcSize=1;strokeWidth=1;container=0;" vertex="1" parent="1">
          <mxGeometry x="561.25" y="535.25" width="137.5" height="40" as="geometry" />
        </mxCell>
        <mxCell id="sQo7lses8vQsKpoa6HPt-8" value="&lt;span style=&quot;color: rgb(33, 33, 33);&quot;&gt;Группа worker-узлов&amp;nbsp;D&lt;/span&gt;" style="rounded=1;whiteSpace=wrap;html=1;fontFamily=VK Sans Display;strokeColor=#7C8A9A;arcsize=12;fillColor=#FFFFFF;spacing=0;spacingTop=12;spacingBottom=12;arcSize=12;absoluteArcSize=1;strokeWidth=1;container=0;" vertex="1" parent="1">
          <mxGeometry x="571.25" y="545.25" width="137.5" height="40" as="geometry" />
        </mxCell>
        <mxCell id="sQo7lses8vQsKpoa6HPt-9" value="&lt;font color=&quot;#212121&quot;&gt;Зона доступности&amp;nbsp;2&lt;/font&gt;" style="rounded=1;whiteSpace=wrap;html=1;fontFamily=VK Sans Display;strokeColor=none;arcsize=12;fillColor=#F6F7F9;spacing=10;verticalAlign=top;spacingTop=0;spacingLeft=0;spacingRight=0;fontStyle=1;arcSize=12;absoluteArcSize=1;container=0;" vertex="1" parent="1">
          <mxGeometry x="750" y="385" width="180" height="235" as="geometry" />
        </mxCell>
        <mxCell id="sQo7lses8vQsKpoa6HPt-10" value="&lt;font color=&quot;#212121&quot;&gt;Node 1&lt;/font&gt;" style="rounded=1;whiteSpace=wrap;html=1;fontFamily=VK Sans Display;strokeColor=#7C8A9A;arcsize=12;fillColor=#FFFFFF;spacing=0;spacingTop=12;spacingBottom=12;arcSize=12;absoluteArcSize=1;strokeWidth=1;container=0;" vertex="1" parent="1">
          <mxGeometry x="761.25" y="525.25" width="137.5" height="40" as="geometry" />
        </mxCell>
        <mxCell id="sQo7lses8vQsKpoa6HPt-11" value="&lt;font color=&quot;#212121&quot;&gt;Node 1&lt;/font&gt;" style="rounded=1;whiteSpace=wrap;html=1;fontFamily=VK Sans Display;strokeColor=#7C8A9A;arcsize=12;fillColor=#FFFFFF;spacing=0;spacingTop=12;spacingBottom=12;arcSize=12;absoluteArcSize=1;strokeWidth=1;container=0;" vertex="1" parent="1">
          <mxGeometry x="771.25" y="535.25" width="137.5" height="40" as="geometry" />
        </mxCell>
        <mxCell id="sQo7lses8vQsKpoa6HPt-12" value="&lt;span style=&quot;color: rgb(33, 33, 33);&quot;&gt;Группа worker-узлов&amp;nbsp;B&lt;/span&gt;" style="rounded=1;whiteSpace=wrap;html=1;fontFamily=VK Sans Display;strokeColor=#7C8A9A;arcsize=12;fillColor=#FFFFFF;spacing=0;spacingTop=12;spacingBottom=12;arcSize=12;absoluteArcSize=1;strokeWidth=1;container=0;" vertex="1" parent="1">
          <mxGeometry x="781.25" y="545.25" width="137.5" height="40" as="geometry" />
        </mxCell>
        <mxCell id="sQo7lses8vQsKpoa6HPt-13" style="edgeStyle=orthogonalEdgeStyle;shape=connector;rounded=1;orthogonalLoop=1;jettySize=auto;html=1;labelBackgroundColor=default;strokeColor=#7C8A9A;strokeWidth=1;fontFamily=VK Sans Display;fontSize=16;fontColor=#212121;startArrow=none;startFill=0;endArrow=none;endFill=0;entryX=0.5;entryY=1;entryDx=0;entryDy=0;exitX=0.572;exitY=-0.003;exitDx=0;exitDy=0;exitPerimeter=0;" edge="1" parent="1" source="sQo7lses8vQsKpoa6HPt-10">
          <mxGeometry relative="1" as="geometry">
            <mxPoint x="850" y="525" as="sourcePoint" />
            <mxPoint x="840" y="483.6" as="targetPoint" />
            <Array as="points">
              <mxPoint x="840" y="525" />
            </Array>
          </mxGeometry>
        </mxCell>
        <mxCell id="sQo7lses8vQsKpoa6HPt-14" style="edgeStyle=orthogonalEdgeStyle;shape=connector;rounded=1;orthogonalLoop=1;jettySize=auto;html=1;labelBackgroundColor=default;strokeColor=#7C8A9A;strokeWidth=1;fontFamily=VK Sans Display;fontSize=16;fontColor=#212121;startArrow=none;startFill=0;endArrow=none;endFill=0;entryX=0;entryY=0.25;entryDx=0;entryDy=0;exitX=1;exitY=0.5;exitDx=0;exitDy=0;" edge="1" parent="1" source="sQo7lses8vQsKpoa6HPt-5" target="sQo7lses8vQsKpoa6HPt-20">
          <mxGeometry relative="1" as="geometry">
            <mxPoint x="740" y="590" as="sourcePoint" />
            <mxPoint x="771.25" y="463.6" as="targetPoint" />
            <Array as="points">
              <mxPoint x="730" y="484" />
              <mxPoint x="730" y="453" />
            </Array>
          </mxGeometry>
        </mxCell>
        <mxCell id="sQo7lses8vQsKpoa6HPt-15" value="&lt;font color=&quot;#212121&quot;&gt;Зона доступности&amp;nbsp;3&lt;/font&gt;" style="rounded=1;whiteSpace=wrap;html=1;fontFamily=VK Sans Display;strokeColor=none;arcsize=12;fillColor=#F6F7F9;spacing=10;verticalAlign=top;spacingTop=0;spacingLeft=0;spacingRight=0;fontStyle=1;arcSize=12;absoluteArcSize=1;container=0;" vertex="1" parent="1">
          <mxGeometry x="960" y="385" width="180" height="235.38461538461544" as="geometry" />
        </mxCell>
        <mxCell id="sQo7lses8vQsKpoa6HPt-16" value="&lt;font color=&quot;#212121&quot;&gt;Node 1&lt;/font&gt;" style="rounded=1;whiteSpace=wrap;html=1;fontFamily=VK Sans Display;strokeColor=#7C8A9A;arcsize=12;fillColor=#FFFFFF;spacing=0;spacingTop=12;spacingBottom=12;arcSize=12;absoluteArcSize=1;strokeWidth=1;container=0;" vertex="1" parent="1">
          <mxGeometry x="971.25" y="443.6" width="137.5" height="39.23" as="geometry" />
        </mxCell>
        <mxCell id="sQo7lses8vQsKpoa6HPt-17" value="&lt;font color=&quot;#212121&quot;&gt;Node 1&lt;/font&gt;" style="rounded=1;whiteSpace=wrap;html=1;fontFamily=VK Sans Display;strokeColor=#7C8A9A;arcsize=12;fillColor=#FFFFFF;spacing=0;spacingTop=12;spacingBottom=12;arcSize=12;absoluteArcSize=1;strokeWidth=1;container=0;" vertex="1" parent="1">
          <mxGeometry x="981.25" y="453.40999999999997" width="137.5" height="39.23" as="geometry" />
        </mxCell>
        <mxCell id="sQo7lses8vQsKpoa6HPt-18" value="&lt;font color=&quot;#212121&quot;&gt;Группа worker-узлов&amp;nbsp;C&lt;/font&gt;" style="rounded=1;whiteSpace=wrap;html=1;fontFamily=VK Sans Display;strokeColor=#7C8A9A;arcsize=12;fillColor=#FFFFFF;spacing=0;spacingTop=12;spacingBottom=12;arcSize=12;absoluteArcSize=1;strokeWidth=1;container=0;" vertex="1" parent="1">
          <mxGeometry x="991.25" y="463.22" width="137.5" height="39.23" as="geometry" />
        </mxCell>
        <mxCell id="sQo7lses8vQsKpoa6HPt-19" style="edgeStyle=orthogonalEdgeStyle;shape=connector;rounded=1;orthogonalLoop=1;jettySize=auto;html=1;labelBackgroundColor=default;strokeColor=#7C8A9A;strokeWidth=1;fontFamily=VK Sans Display;fontSize=16;fontColor=#212121;startArrow=none;startFill=0;endArrow=none;endFill=0;entryX=0;entryY=0.5;entryDx=0;entryDy=0;exitX=1;exitY=0.5;exitDx=0;exitDy=0;" edge="1" parent="1" target="sQo7lses8vQsKpoa6HPt-16">
          <mxGeometry relative="1" as="geometry">
            <mxPoint x="908.75" y="463.6" as="sourcePoint" />
            <mxPoint x="985" y="490" as="targetPoint" />
            <Array as="points">
              <mxPoint x="940" y="464" />
            </Array>
          </mxGeometry>
        </mxCell>
        <mxCell id="sQo7lses8vQsKpoa6HPt-20" value="&lt;font color=&quot;#212121&quot;&gt;Master-узел&lt;/font&gt;" style="rounded=1;whiteSpace=wrap;html=1;fontFamily=VK Sans Display;strokeColor=none;arcsize=12;fillColor=#FFFFFF;spacing=0;spacingTop=12;spacingBottom=12;arcSize=12;absoluteArcSize=1;container=0;" vertex="1" parent="1">
          <mxGeometry x="771.88" y="442.83000000000004" width="136.25" height="40" as="geometry" />
        </mxCell>
        <mxCell id="sQo7lses8vQsKpoa6HPt-21" style="edgeStyle=orthogonalEdgeStyle;shape=connector;rounded=1;orthogonalLoop=1;jettySize=auto;html=1;labelBackgroundColor=default;strokeColor=#7C8A9A;strokeWidth=1;fontFamily=VK Sans Display;fontSize=16;fontColor=#212121;startArrow=none;startFill=0;endArrow=none;endFill=0;entryX=0;entryY=0.75;entryDx=0;entryDy=0;exitX=1;exitY=0.5;exitDx=0;exitDy=0;movable=1;resizable=1;rotatable=1;deletable=1;editable=1;locked=0;connectable=1;" edge="1" parent="1">
          <mxGeometry relative="1" as="geometry">
            <mxPoint x="708.88" y="565.25" as="sourcePoint" />
            <mxPoint x="771.88" y="473.25" as="targetPoint" />
            <Array as="points">
              <mxPoint x="740.88" y="565.25" />
              <mxPoint x="740.88" y="473.25" />
            </Array>
          </mxGeometry>
        </mxCell>
      </root>
    </mxGraphModel>
  </diagram>
</mxfile>
